<svg width="18" height="19" viewBox="0 0 18 19" fill="none" xmlns="http://www.w3.org/2000/svg">
<path d="M16.23 13.1203L13.69 12.8303C13.08 12.7603 12.48 12.9703 12.05 13.4003L10.21 15.2403C7.38 13.8003 5.05999 11.4903 3.61999 8.6503L5.47 6.8003C5.89999 6.3703 6.10999 5.7703 6.03999 5.1603L5.74999 2.6403C5.62999 1.6303 4.77999 0.8703 3.76 0.8703H2.03C0.899995 0.8703 -0.0400051 1.8103 0.0299949 2.9403C0.559995 11.4803 7.39 18.3003 15.92 18.8303C17.05 18.9003 17.99 17.9603 17.99 16.8303V15.1003C18 14.0903 17.24 13.2403 16.23 13.1203Z" fill="#4339F2"/>
</svg>
