<svg width="48" height="48" viewBox="0 0 48 48" fill="none" xmlns="http://www.w3.org/2000/svg">
<path d="M24 48C37.2548 48 48 37.2548 48 24C48 10.7452 37.2548 0 24 0C10.7452 0 0 10.7452 0 24C0 37.2548 10.7452 48 24 48Z" fill="#4339F2"/>
<path d="M32.6776 27.9116L29.6296 27.5636C28.8976 27.4796 28.1776 27.7316 27.6616 28.2476L25.4536 30.4556C22.0576 28.7276 19.2736 25.9556 17.5456 22.5476L19.7656 20.3276C20.2816 19.8116 20.5336 19.0916 20.4496 18.3596L20.1016 15.3356C19.9576 14.1236 18.9376 13.2116 17.7136 13.2116H15.6376C14.2816 13.2116 13.1536 14.3396 13.2376 15.6956C13.8736 25.9436 22.0696 34.1276 32.3056 34.7636C33.6616 34.8476 34.7896 33.7196 34.7896 32.3636V30.2876C34.8016 29.0756 33.8896 28.0556 32.6776 27.9116Z" fill="white"/>
</svg>
