<svg width="65" height="64" viewBox="0 0 65 64" fill="none" xmlns="http://www.w3.org/2000/svg">
<rect x="0.859375" width="64" height="64" rx="14" fill="#4339F2"/>
<path d="M32.8581 17.8335C30.0562 17.8335 27.3172 18.6644 24.9875 20.221C22.6578 21.7777 20.842 23.9902 19.7698 26.5788C18.6975 29.1674 18.417 32.0159 18.9636 34.7639C19.5102 37.512 20.8595 40.0363 22.8407 42.0175C24.822 43.9988 27.3462 45.348 30.0943 45.8946C32.8424 46.4412 35.6908 46.1607 38.2794 45.0885C40.868 44.0162 43.0806 42.2004 44.6372 39.8707C46.1939 37.541 47.0247 34.8021 47.0247 32.0002C47.0247 30.1398 46.6583 28.2976 45.9464 26.5788C45.2344 24.86 44.1909 23.2983 42.8754 21.9828C41.5599 20.6673 39.9982 19.6238 38.2794 18.9119C36.5606 18.1999 34.7185 17.8335 32.8581 17.8335ZM32.8581 43.3335C30.6166 43.3335 28.4254 42.6688 26.5616 41.4235C24.6979 40.1782 23.2452 38.4081 22.3874 36.3372C21.5297 34.2663 21.3052 31.9876 21.7425 29.7891C22.1798 27.5907 23.2592 25.5713 24.8442 23.9863C26.4292 22.4013 28.4486 21.3219 30.6471 20.8846C32.8455 20.4473 35.1243 20.6717 37.1952 21.5295C39.2661 22.3873 41.0361 23.8399 42.2814 25.7037C43.5267 27.5675 44.1914 29.7586 44.1914 32.0002C44.1914 35.0059 42.9974 37.8886 40.872 40.014C38.7465 42.1395 35.8639 43.3335 32.8581 43.3335ZM30.0247 27.7502C30.0247 27.47 29.9417 27.1961 29.786 26.9631C29.6303 26.7301 29.4091 26.5486 29.1502 26.4413C28.8914 26.3341 28.6065 26.3061 28.3317 26.3607C28.0569 26.4154 27.8045 26.5503 27.6063 26.7484C27.4082 26.9466 27.2733 27.199 27.2186 27.4738C27.164 27.7486 27.192 28.0334 27.2992 28.2923C27.4065 28.5512 27.5881 28.7724 27.821 28.9281C28.054 29.0837 28.3279 29.1668 28.6081 29.1668C28.9838 29.1668 29.3441 29.0176 29.6098 28.7519C29.8755 28.4862 30.0247 28.1259 30.0247 27.7502ZM37.1081 26.3335C36.8279 26.3335 36.554 26.4166 36.321 26.5722C36.0881 26.7279 35.9065 26.9492 35.7993 27.208C35.692 27.4669 35.664 27.7517 35.7186 28.0265C35.7733 28.3013 35.9082 28.5538 36.1063 28.7519C36.3045 28.95 36.5569 29.0849 36.8317 29.1396C37.1065 29.1943 37.3914 29.1662 37.6502 29.059C37.9091 28.9518 38.1303 28.7702 38.286 28.5372C38.4417 28.3043 38.5247 28.0304 38.5247 27.7502C38.5247 27.3744 38.3755 27.0141 38.1098 26.7484C37.8441 26.4828 37.4838 26.3335 37.1081 26.3335ZM32.8581 30.5835C31.5916 30.6351 30.397 31.1853 29.5345 32.1141C28.672 33.0429 28.2117 34.275 28.2539 35.5418C28.2117 36.8086 28.672 38.0407 29.5345 38.9695C30.397 39.8983 31.5916 40.4485 32.8581 40.5002C34.1245 40.4485 35.3192 39.8983 36.1816 38.9695C37.0441 38.0407 37.5044 36.8086 37.4622 35.5418C37.5044 34.275 37.0441 33.0429 36.1816 32.1141C35.3192 31.1853 34.1245 30.6351 32.8581 30.5835ZM32.8581 37.6668C32.3428 37.6165 31.8681 37.3653 31.5367 36.9676C31.2053 36.5699 31.0438 36.0577 31.0872 35.5418C31.0438 35.026 31.2053 34.5137 31.5367 34.116C31.8681 33.7183 32.3428 33.4671 32.8581 33.4168C33.3733 33.4671 33.848 33.7183 34.1794 34.116C34.5109 34.5137 34.6723 35.026 34.6289 35.5418C34.6723 36.0577 34.5109 36.5699 34.1794 36.9676C33.848 37.3653 33.3733 37.6165 32.8581 37.6668Z" fill="white"/>
</svg>
