<svg width="64" height="64" viewBox="0 0 64 64" fill="none" xmlns="http://www.w3.org/2000/svg">
<rect y="-0.000152588" width="64" height="64" rx="14" fill="#4339F2"/>
<path d="M23.5013 30.5833C23.2211 30.5833 22.9472 30.6664 22.7142 30.822C22.4813 30.9777 22.2997 31.1989 22.1925 31.4578C22.0852 31.7167 22.0572 32.0015 22.1119 32.2763C22.1665 32.5511 22.3014 32.8036 22.4996 33.0017C22.6977 33.1998 22.9501 33.3347 23.2249 33.3894C23.4997 33.4441 23.7846 33.416 24.0434 33.3088C24.3023 33.2016 24.5236 33.02 24.6792 32.787C24.8349 32.554 24.918 32.2801 24.918 31.9999C24.918 31.6242 24.7687 31.2639 24.503 30.9982C24.2374 30.7325 23.877 30.5833 23.5013 30.5833ZM31.803 28.3874L21.6738 18.2441C21.5417 18.112 21.3849 18.0072 21.2123 17.9358C21.0397 17.8643 20.8548 17.8275 20.668 17.8275C20.4812 17.8275 20.2962 17.8643 20.1236 17.9358C19.951 18.0072 19.7942 18.112 19.6621 18.2441C19.3954 18.5109 19.2455 18.8727 19.2455 19.2499C19.2455 19.6272 19.3954 19.989 19.6621 20.2558L21.5038 22.0833H20.668C19.5408 22.0833 18.4598 22.531 17.6628 23.3281C16.8657 24.1251 16.418 25.2061 16.418 26.3333V37.6666C16.418 38.7938 16.8657 39.8748 17.6628 40.6718C18.4598 41.4688 19.5408 41.9166 20.668 41.9166H41.3371L45.1621 45.7558C45.2938 45.8886 45.4505 45.994 45.6232 46.0659C45.7958 46.1378 45.981 46.1748 46.168 46.1748C46.355 46.1748 46.5402 46.1378 46.7128 46.0659C46.8854 45.994 47.0421 45.8886 47.1738 45.7558C47.3066 45.6241 47.412 45.4674 47.4839 45.2948C47.5558 45.1221 47.5929 44.937 47.5929 44.7499C47.5929 44.5629 47.5558 44.3778 47.4839 44.2051C47.412 44.0325 47.3066 43.8758 47.1738 43.7441L31.803 28.3874ZM30.7546 31.3483L32.653 33.2466C32.4526 33.3548 32.229 33.4132 32.0013 33.4166C31.6256 33.4166 31.2652 33.2674 30.9996 33.0017C30.7339 32.736 30.5846 32.3757 30.5846 31.9999C30.5881 31.7722 30.6464 31.5487 30.7546 31.3483ZM20.668 39.0833C20.2922 39.0833 19.9319 38.934 19.6662 38.6683C19.4006 38.4027 19.2513 38.0423 19.2513 37.6666V26.3333C19.2513 25.9576 19.4006 25.5972 19.6662 25.3315C19.9319 25.0659 20.2922 24.9166 20.668 24.9166H24.3371L28.7288 29.3083C28.1014 30.0654 27.7559 31.0167 27.7513 31.9999C27.7513 33.1271 28.1991 34.2081 28.9961 35.0051C29.7931 35.8022 30.8741 36.2499 32.0013 36.2499C32.9846 36.2453 33.9358 35.8998 34.693 35.2724L38.5038 39.0833H20.668ZM43.3346 22.0833H32.9363C32.5606 22.0833 32.2002 22.2325 31.9346 22.4982C31.6689 22.7639 31.5196 23.1242 31.5196 23.4999C31.5196 23.8757 31.6689 24.236 31.9346 24.5017C32.2002 24.7674 32.5606 24.9166 32.9363 24.9166H43.3346C43.7104 24.9166 44.0707 25.0659 44.3364 25.3315C44.602 25.5972 44.7513 25.9576 44.7513 26.3333V36.7316C44.7513 37.1073 44.9006 37.4677 45.1662 37.7333C45.4319 37.999 45.7922 38.1483 46.168 38.1483C46.5437 38.1483 46.904 37.999 47.1697 37.7333C47.4354 37.4677 47.5846 37.1073 47.5846 36.7316V26.3333C47.5846 25.2061 47.1369 24.1251 46.3398 23.3281C45.5428 22.531 44.4618 22.0833 43.3346 22.0833ZM41.918 31.9999C41.918 31.7198 41.8349 31.4459 41.6792 31.2129C41.5236 30.9799 41.3023 30.7983 41.0434 30.6911C40.7846 30.5839 40.4997 30.5558 40.2249 30.6105C39.9501 30.6652 39.6977 30.8001 39.4996 30.9982C39.3014 31.1963 39.1665 31.4488 39.1119 31.7236C39.0572 31.9984 39.0852 32.2832 39.1925 32.5421C39.2997 32.8009 39.4813 33.0222 39.7142 33.1779C39.9472 33.3335 40.2211 33.4166 40.5013 33.4166C40.877 33.4166 41.2374 33.2674 41.503 33.0017C41.7687 32.736 41.918 32.3757 41.918 31.9999Z" fill="white"/>
</svg>
