<svg width="120" height="120" viewBox="0 0 120 120" fill="none" xmlns="http://www.w3.org/2000/svg">
<circle cx="60" cy="60.001" r="60" fill="#FAFAFA"/>
<path d="M34.4336 93.4037V54.0055L60.0146 68.7797V108.179L34.4336 93.4037Z" fill="#E1E1E1"/>
<path d="M60.0078 108.179V68.7797L85.5888 54.0055V93.4037L60.0078 108.179Z" fill="#D9D7D7"/>
<path d="M30.9766 52.1003V46.4911L59.8561 63.1699V68.7805L30.9766 52.1003Z" fill="#E7E7E7"/>
<path d="M60.0078 68.7805V63.1699L88.8874 46.4911V52.1003L60.0078 68.7805Z" fill="#E4E4E4"/>
<path d="M59.8561 29.8149L30.9766 46.4946L59.8561 63.1736L88.7356 46.4946L59.8561 29.8149Z" fill="#F0F0F0"/>
<path d="M42.1633 97.9501L38.2344 95.6802V61.0714L42.1633 63.341V97.9501Z" fill="#D5D5D5"/>
<path d="M48.7297 101.84L46.7638 100.703L44.8008 99.5701V64.9609L48.7297 67.2309V101.84" fill="#D5D5D5"/>
<path d="M55.6399 105.729L51.7109 103.459V68.8503L55.6399 71.1203V105.729Z" fill="#D5D5D5"/>
<path d="M77.6328 97.9501V63.341L81.5646 61.0714V95.6802L79.748 96.729L77.6328 97.9501Z" fill="#C8C8C8"/>
<path d="M70.7217 101.84V67.2307L74.6506 64.9607V99.5699L73.8958 100.006L70.7217 101.84" fill="#C8C8C8"/>
<path d="M64.1553 105.729V71.1198L68.0842 68.8499V103.459L64.1553 105.729Z" fill="#C8C8C8"/>
<path d="M34.4336 55.2767V54.0055L60.0146 68.7797V70.052L34.4336 55.2767Z" fill="#DADADA"/>
<path d="M57.7679 23.3394C57.7679 22.4918 57.9097 21.7685 58.1621 21.1779C56.1942 20.954 54.8077 22.4206 54.8077 25.1076C54.8077 28.6402 57.2065 32.9371 60.1668 34.7041C62.4182 36.0465 64.3407 35.5374 65.1346 33.6669C64.5136 33.5957 63.8388 33.36 63.1271 32.9365C60.1668 31.1704 57.7679 26.8737 57.7679 23.3394Z" fill="#4900D0"/>
<path fill-rule="evenodd" clip-rule="evenodd" d="M68.1792 41.9054C70.9054 40.247 71.8537 36.3106 71.0298 31.7279C71.0298 31.7212 71.027 31.7143 71.027 31.7079C71.0243 31.7019 71.0243 31.6944 71.0243 31.6883C70.5681 29.1855 69.5838 26.4907 68.0741 23.8706C68.0631 23.8531 68.052 23.8363 68.0437 23.8188C68.0326 23.8009 68.0216 23.7832 68.0133 23.7654C64.5599 17.8437 59.4282 14.0968 55.3085 14.0821H55.2836C54.2634 14.0821 53.3067 14.3114 52.4496 14.7943C52.4468 14.796 52.444 14.7979 52.4413 14.7999C52.4275 14.8068 52.4164 14.8137 52.4053 14.8206L53.2597 14.3272L55.2919 13.1531C56.1573 12.6522 57.1333 12.4143 58.1702 12.4143C62.3203 12.4143 67.499 16.2088 70.9607 22.2022C73.6122 26.8005 74.6408 31.6263 74.038 35.2474C73.8998 36.0811 73.6758 36.8514 73.3634 37.5398C72.8242 38.7363 72.0224 39.6872 70.9607 40.3004L68.1792 41.9054Z" fill="#6918FF"/>
<path d="M60.3671 34.4618C57.4697 32.7855 55.1219 28.7087 55.1219 25.3577C55.1219 22.0045 57.4697 20.6465 60.3671 22.3217C63.2646 23.9975 65.6125 28.074 65.6125 31.4272C65.6125 34.778 63.2646 36.1371 60.3671 34.4618ZM68.2324 23.8437C63.889 16.3092 56.8481 12.2325 52.5048 14.746C48.1587 17.2565 48.1587 25.403 52.5048 32.9392L60.3671 46.5844L68.2324 42.0367C72.5729 39.5256 72.5729 31.3802 68.2324 23.8437Z" fill="#4339F2"/>
</svg>
