<svg width="64" height="64" viewBox="0 0 64 64" fill="none" xmlns="http://www.w3.org/2000/svg">
<rect y="9.15527e-05" width="64" height="64" rx="14" fill="#4339F2"/>
<path d="M44.7487 29.1667C44.9348 29.1668 45.119 29.1302 45.2909 29.059C45.4628 28.9878 45.619 28.8835 45.7505 28.7519C45.8821 28.6203 45.9864 28.4641 46.0576 28.2922C46.1288 28.1203 46.1654 27.9361 46.1654 27.75V23.5C46.1655 23.2028 46.072 22.9131 45.8982 22.6719C45.7243 22.4308 45.479 22.2505 45.1969 22.1567L32.4469 17.9067C32.156 17.8099 31.8414 17.8099 31.5505 17.9067L18.8005 22.1567C18.5184 22.2505 18.2731 22.4308 18.0992 22.6719C17.9254 22.9131 17.8319 23.2028 17.832 23.5V27.75C17.832 27.9361 17.8686 28.1203 17.9398 28.2922C18.0109 28.4641 18.1153 28.6203 18.2469 28.7519C18.3784 28.8835 18.5346 28.9878 18.7065 29.059C18.8784 29.1302 19.0626 29.1668 19.2487 29.1667H20.6654V39.3444C19.8391 39.6355 19.1231 40.1752 18.6158 40.8894C18.1085 41.6036 17.8347 42.4573 17.832 43.3334V46.1667C17.832 46.3528 17.8686 46.537 17.9398 46.7089C18.0109 46.8808 18.1153 47.037 18.2469 47.1686C18.3784 47.3001 18.5346 47.4045 18.7065 47.4756C18.8784 47.5468 19.0626 47.5834 19.2487 47.5834H44.7487C44.9348 47.5834 45.119 47.5468 45.2909 47.4756C45.4628 47.4045 45.619 47.3001 45.7505 47.1686C45.8821 47.037 45.9864 46.8808 46.0576 46.7089C46.1288 46.537 46.1654 46.3528 46.1654 46.1667V43.3334C46.1627 42.4573 45.8889 41.6036 45.3816 40.8894C44.8743 40.1752 44.1583 39.6355 43.332 39.3444V29.1667H44.7487ZM43.332 44.7501H20.6654V43.3334C20.6657 42.9578 20.8151 42.5977 21.0807 42.3321C21.3463 42.0665 21.7064 41.9171 22.082 41.9167H41.9154C42.291 41.9171 42.6511 42.0665 42.9167 42.3321C43.1823 42.5977 43.3317 42.9578 43.332 43.3334V44.7501ZM23.4987 39.0834V29.1667H26.332V39.0834H23.4987ZM29.1654 39.0834V29.1667H34.832V39.0834H29.1654ZM37.6654 39.0834V29.1667H40.4987V39.0834H37.6654ZM20.6654 26.3334V24.521L31.9987 20.7428L43.332 24.521V26.3334H20.6654Z" fill="white"/>
</svg>
