<svg width="56" height="57" viewBox="0 0 56 57" fill="none" xmlns="http://www.w3.org/2000/svg">
<circle cx="28" cy="28.0879" r="27.2497" fill="white" stroke="#E0E0E0" stroke-width="1.50052"/>
<path d="M28.003 41.3126C35.306 41.3126 41.2263 35.3923 41.2263 28.0893C41.2263 20.7863 35.306 14.866 28.003 14.866C20.6999 14.866 14.7796 20.7863 14.7796 28.0893C14.7796 35.3923 20.6999 41.3126 28.003 41.3126Z" fill="#4339F2"/>
<path d="M25.5789 34.1501C25.1505 34.1501 25.2233 33.9884 25.0756 33.5805L23.8158 29.4344L33.5129 23.6816" fill="#C8DAEA"/>
<path d="M25.5785 34.1497C25.9091 34.1497 26.0551 33.9986 26.2396 33.8192L28.0028 32.1048L25.8035 30.7786" fill="#A9C9DD"/>
<path d="M25.8032 30.7794L31.1322 34.7165C31.7403 35.0521 32.1792 34.8783 32.3307 34.1519L34.4999 23.93C34.7219 23.0396 34.1604 22.6357 33.5787 22.8999L20.8413 27.8113C19.9719 28.1601 19.9769 28.6451 20.6828 28.8613L23.9515 29.8815L31.5189 25.1073C31.8762 24.8907 32.204 25.0071 31.9349 25.246" fill="white"/>
</svg>
