<svg width="56" height="57" viewBox="0 0 56 57" fill="none" xmlns="http://www.w3.org/2000/svg">
<circle cx="28" cy="28.0879" r="27.2497" fill="white" stroke="#E0E0E0" stroke-width="1.50052"/>
<path d="M27.9997 39.7545C34.443 39.7545 39.6663 34.5311 39.6663 28.0878C39.6663 21.6445 34.443 16.4211 27.9997 16.4211C21.5564 16.4211 16.333 21.6445 16.333 28.0878C16.333 34.5311 21.5564 39.7545 27.9997 39.7545Z" fill="#4339F2"/>
<path d="M32.2175 29.9896L30.7359 29.8204C30.38 29.7796 30.03 29.9021 29.7792 30.1529L28.7059 31.2262C27.055 30.3863 25.7017 29.0388 24.8617 27.3821L25.9409 26.3029C26.1917 26.0521 26.3142 25.7021 26.2734 25.3463L26.1042 23.8763C26.0342 23.2871 25.5384 22.8438 24.9434 22.8438H23.9342C23.275 22.8438 22.7267 23.3921 22.7675 24.0513C23.0767 29.0329 27.0609 33.0113 32.0367 33.3204C32.6959 33.3612 33.2442 32.8129 33.2442 32.1538V31.1446C33.25 30.5554 32.8067 30.0596 32.2175 29.9896Z" fill="white"/>
</svg>
