<svg width="160" height="59" viewBox="0 0 160 59" fill="none" xmlns="http://www.w3.org/2000/svg">
<path d="M5.939 18.157H0V58.173H5.939V18.157ZM15.581 23.744H9.643V58.243H15.581V23.744Z" fill="#212121"/>
<path d="M54.0806 23.744H48.1406V58.243H54.0806V23.744ZM63.6506 18.157H57.7106V58.173H63.6506V18.157Z" fill="#212121"/>
<path d="M25.1548 7.892H19.2148V58.172H25.1548V7.892ZM34.7948 0H28.8568V58.173H34.7948V0ZM44.4378 7.892H38.4988V58.172H44.4378V7.892ZM75.1808 48.885H86.5688V58.243H82.9358V51.259H78.8139V58.312H75.1808V48.885ZM98.0278 48.885H108.439V58.243H104.806V51.259H101.661V53.843C101.661 55.589 101.312 56.846 100.613 57.614C100.054 58.243 99.2859 58.522 98.0278 58.522C97.3298 58.522 96.6308 58.452 95.8618 58.312V56.148C96.0718 56.218 96.3518 56.218 96.7708 56.218C97.9578 56.218 98.0278 55.31 98.0278 53.773V48.885ZM130.237 48.675C134.429 48.675 136.525 50.351 136.525 53.633C136.525 56.845 134.429 58.591 130.237 58.591C126.464 58.591 124.368 57.195 124.019 54.541H122.412V58.312H118.778V48.884H122.412V52.097H124.088C124.647 49.862 126.743 48.675 130.237 48.675ZM130.237 56.077C131.774 56.077 132.612 55.17 132.612 53.563C132.612 51.957 131.774 51.049 130.237 51.049C128.7 51.049 127.861 51.957 127.861 53.563C127.861 55.239 128.7 56.077 130.237 56.077ZM152.037 51.05C150.5 51.05 149.662 51.957 149.662 53.563C149.662 55.169 150.5 56.077 152.037 56.077C153.155 56.077 153.854 55.589 154.063 54.541H158.256C157.906 57.125 155.74 58.451 152.037 58.451C147.845 58.451 145.749 56.776 145.749 53.493C145.749 50.281 147.845 48.535 152.037 48.535C155.95 48.535 158.116 50.072 158.256 52.725H154.133C153.994 51.678 153.295 51.05 152.037 51.05ZM74.1329 24.93C74.8309 18.157 79.3728 14.106 87.4078 14.106C94.8138 14.106 100.613 19.414 100.613 28.004C100.613 36.594 95.3028 41.97 86.5688 41.97C79.5818 41.97 74.6908 37.85 73.9228 31.006H82.2368C82.5868 33.52 83.9138 35.475 86.7088 35.475C90.3419 35.475 91.5288 33.101 91.8788 30.168H86.2188V25.348H91.6688C91.1108 22.206 89.4338 20.53 87.0588 20.53C84.3328 20.53 82.5868 22.137 82.3768 24.86H74.1318V24.93H74.1329ZM120.945 14.805H131.145L121.503 24.721L132.193 41.202H121.783L115.355 30.727L113.329 32.892V41.272H104.665V32.473L120.945 14.805ZM160.001 27.934C160.001 36.943 153.922 41.971 146.097 41.971C137.782 41.971 132.263 36.803 132.263 27.864C132.263 19.554 137.852 14.176 146.097 14.176C155.599 14.106 160.001 20.95 160.001 27.934ZM140.926 27.934C140.926 31.286 141.975 35.546 146.097 35.546C149.87 35.546 151.337 32.333 151.337 27.934C151.337 24.302 149.87 20.601 146.027 20.601C142.114 20.601 140.926 24.581 140.926 27.934Z" fill="#212121"/>
<path d="M115.843 14.8049H104.664V27.4449L115.843 14.8049Z" fill="#212121"/>
</svg>
