<svg width="205" height="52" viewBox="0 0 205 52" fill="none" xmlns="http://www.w3.org/2000/svg">
<path d="M39.7478 30.3945L37.4828 27.8311L24.2578 42.3325L39.7478 30.3945Z" fill="#212121"/>
<path d="M14.4684 44.3832L12.5686 42.2593L3.80078 51.8536L14.4684 44.3832Z" fill="#212121"/>
<path d="M0 0.0732394V51.9268L12.4943 37.938L24.9885 51.9268H28.788L20.2392 42.4056L37.5559 22.9972L63.4942 52V0L0 0.0732394Z" fill="#212121"/>
<path d="M87.095 29.5155V44.8958H83.0764V29.5155H77.5234V25.4873H92.648V29.5155H87.095Z" fill="#212121"/>
<path d="M99.4442 35.3746C99.4442 34.8619 99.225 34.4957 98.8597 34.276C98.4944 34.0563 98.056 33.9098 97.5445 33.9098C97.033 33.9098 96.5946 34.0563 96.2293 34.276C95.7909 34.4957 95.6448 34.9351 95.6448 35.4478V36.6929H99.4442V35.3746ZM102.44 42.4788C102.148 42.9915 101.856 43.4309 101.417 43.7239C101.052 44.0901 100.614 44.3098 100.175 44.5295C99.7365 44.7492 99.2981 44.8957 98.7866 44.9689C98.3482 45.0422 97.9098 45.1154 97.4714 45.1154C96.7408 45.1154 96.0832 45.0422 95.3525 44.8225C94.6219 44.6027 94.0373 44.3098 93.5259 43.8703C93.0144 43.4309 92.576 42.9182 92.2107 42.3323C91.9184 41.6732 91.6992 40.9408 91.6992 40.1351V35.4478C91.6992 34.5689 91.8454 33.8365 92.2107 33.2506C92.576 32.5915 93.0144 32.0788 93.5259 31.7126C94.0373 31.2732 94.6949 30.9802 95.3525 30.7605C96.0101 30.5408 96.7408 30.4675 97.4714 30.4675C98.129 30.4675 98.8597 30.5408 99.5173 30.7605C100.175 30.907 100.76 31.1999 101.271 31.6394C101.783 32.0055 102.221 32.5182 102.513 33.1774C102.806 33.7633 102.952 34.4957 102.952 35.3746V39.5492H95.5717V40.2084C95.5717 40.721 95.7909 41.1605 96.2293 41.4534C96.6677 41.7464 97.1792 41.8929 97.6906 41.8929C98.129 41.8929 98.5674 41.8196 98.9327 41.5999C99.3711 41.4534 99.6634 41.1605 99.8826 40.7943L102.44 42.4788Z" fill="#212121"/>
<path d="M112.301 39.183C112.082 39.1097 111.79 39.0365 111.498 38.9633C111.205 38.89 110.913 38.89 110.548 38.89C109.817 38.89 109.306 39.0365 108.94 39.4027C108.575 39.6957 108.429 40.1351 108.429 40.6478C108.429 41.1604 108.575 41.5999 108.94 41.8928C109.306 42.1858 109.89 42.3323 110.621 42.3323C111.205 42.3323 111.717 42.259 112.228 42.1126V39.183H112.301ZM104.922 40.6478C104.922 39.8421 105.068 39.1097 105.36 38.5238C105.652 37.9379 106.018 37.4252 106.456 37.059C106.894 36.6928 107.479 36.3999 108.063 36.2534C108.648 36.1069 109.306 35.9604 109.963 35.9604C110.767 35.9604 111.644 36.1069 112.447 36.3999V35.3745C112.447 34.6421 112.228 34.1295 111.79 33.8365C111.351 33.5435 110.84 33.3971 110.255 33.3971C109.744 33.3971 109.159 33.5435 108.648 33.7633C108.136 33.983 107.625 34.3492 107.26 34.7154L105.433 32.7379C106.164 31.9323 106.967 31.2731 107.771 30.9069C108.648 30.5407 109.525 30.321 110.548 30.321C111.278 30.321 111.936 30.3942 112.594 30.614C113.251 30.8337 113.836 31.1266 114.347 31.5661C114.859 32.0055 115.297 32.5182 115.589 33.1041C115.881 33.7633 116.101 34.4957 116.101 35.3013V43.9435C115.297 44.2365 114.42 44.5295 113.47 44.6759C112.52 44.8957 111.644 44.9689 110.767 44.9689C108.794 44.9689 107.26 44.5295 106.31 43.7238C105.36 43.1379 104.922 42.0393 104.922 40.6478Z" fill="#212121"/>
<path d="M118.949 32.2254C119.534 31.7127 120.338 31.2732 121.214 30.907C122.091 30.6141 123.041 30.3944 123.991 30.4676C124.721 30.4676 125.452 30.6141 126.183 30.907C126.913 31.1268 127.425 31.6394 127.79 32.2254C128.229 31.6394 128.813 31.2 129.471 30.907C130.128 30.6141 130.786 30.4676 131.444 30.4676C132.101 30.4676 132.759 30.5408 133.343 30.7606C134.001 30.9803 134.512 31.2732 135.024 31.6394C135.535 32.0056 135.901 32.5183 136.193 33.1775C136.485 33.7634 136.631 34.4958 136.631 35.3014V44.969H132.978V35.1549C132.978 34.7155 132.832 34.4225 132.466 34.2028C132.101 33.9831 131.736 33.9099 131.297 33.9099C130.859 33.9099 130.494 33.9831 130.128 34.2028C129.763 34.4225 129.617 34.7155 129.617 35.1549V44.969H125.964V35.2282C125.964 34.7887 125.744 34.4958 125.379 34.2761C124.941 34.0563 124.502 33.9099 124.064 33.9099C123.772 33.9099 123.552 33.9831 123.333 34.0563C123.114 34.1296 122.895 34.2761 122.749 34.4225V44.8958H119.022V32.2254H118.949Z" fill="#212121"/>
<path d="M139.992 31.1267C139.992 30.1746 140.211 29.2958 140.65 28.5634C141.088 27.831 141.6 27.1718 142.257 26.7324C142.915 26.2197 143.718 25.8535 144.595 25.6338C145.472 25.4141 146.349 25.2676 147.226 25.2676C147.883 25.2676 148.541 25.3408 149.272 25.4873C149.929 25.6338 150.587 25.8535 151.171 26.1465C151.756 26.4394 152.267 26.8056 152.706 27.2451C153.144 27.6845 153.509 28.1972 153.802 28.7831L152.34 29.5155C152.121 29.076 151.829 28.7098 151.463 28.3437C151.098 28.0507 150.66 27.7577 150.221 27.538C149.783 27.3183 149.272 27.1718 148.76 27.0253C148.249 26.9521 147.664 26.8789 147.153 26.8789C146.495 26.8789 145.764 26.9521 145.107 27.1718C144.449 27.3183 143.865 27.6113 143.353 27.9775C142.842 28.3436 142.403 28.7831 142.111 29.2958C141.819 29.8084 141.6 30.4676 141.6 31.1267V39.2563C141.6 39.9887 141.746 40.5746 142.111 41.1606C142.403 41.6732 142.842 42.1859 143.426 42.4789C143.938 42.8451 144.595 43.138 145.253 43.2845C145.91 43.431 146.641 43.5775 147.299 43.5775C148.029 43.5775 148.687 43.5042 149.345 43.2845C150.002 43.138 150.587 42.8451 151.171 42.4789C151.683 42.1127 152.121 41.6732 152.413 41.1606C152.706 40.6479 152.925 39.9887 152.925 39.2563V36.8394H147.006V35.2282H154.532V39.1831C154.532 40.1352 154.313 41.0141 153.875 41.8197C153.436 42.5521 152.925 43.2113 152.267 43.7239C151.61 44.2366 150.806 44.6028 149.929 44.8225C149.052 45.0422 148.176 45.1887 147.299 45.1887C146.422 45.1887 145.472 45.0422 144.668 44.8225C143.792 44.6028 143.061 44.2366 142.33 43.7239C141.673 43.2113 141.088 42.6253 140.65 41.8197C140.211 41.0873 139.992 40.2084 139.992 39.1831V31.1267Z" fill="#212121"/>
<path d="M162.499 30.4675C162.645 30.4675 162.864 30.4675 163.01 30.4675C163.156 30.4675 163.375 30.4675 163.522 30.5408V32.0788C163.156 32.0055 162.864 32.0055 162.572 32.0055C162.279 32.0055 161.914 32.0788 161.622 32.152C160.891 32.2985 160.307 32.6647 159.795 33.1041C159.284 33.6168 158.991 34.276 158.991 35.0816V44.9689H157.457V35.0084C157.457 34.2027 157.603 33.4703 157.968 32.8844C158.334 32.2985 158.772 31.8591 159.284 31.4929C159.795 31.1267 160.38 30.907 160.964 30.6872C161.476 30.5408 162.06 30.4675 162.499 30.4675Z" fill="#212121"/>
<path d="M170.389 31.9323C169.95 31.9323 169.439 32.0055 169 32.0788C168.562 32.2253 168.124 32.3717 167.758 32.5915C167.393 32.8112 167.101 33.1774 166.881 33.5436C166.662 33.9098 166.516 34.4225 166.516 34.9351V40.5746C166.516 41.0872 166.662 41.5999 166.881 41.9661C167.101 42.3323 167.393 42.6985 167.758 42.9182C168.124 43.1379 168.562 43.3577 169 43.5041C169.439 43.6506 169.95 43.6506 170.389 43.6506C170.827 43.6506 171.265 43.5774 171.777 43.5041C172.215 43.3577 172.654 43.2112 173.019 42.9182C173.384 42.6985 173.677 42.3323 173.896 41.9661C174.115 41.5999 174.261 41.0872 174.261 40.5746V34.9351C174.261 34.4225 174.115 33.9098 173.896 33.5436C173.677 33.1774 173.384 32.8112 173.019 32.5915C172.654 32.3717 172.215 32.152 171.777 32.0788C171.338 32.0055 170.9 31.9323 170.389 31.9323ZM165.055 35.0816C165.055 34.3492 165.201 33.6168 165.493 33.1041C165.785 32.5182 166.224 32.0788 166.735 31.6394C167.247 31.2732 167.831 30.9802 168.489 30.7605C169.146 30.5408 169.804 30.4675 170.462 30.4675C171.119 30.4675 171.777 30.5408 172.434 30.7605C173.092 30.9802 173.677 31.2732 174.115 31.6394C174.626 32.0055 174.992 32.5182 175.357 33.1041C175.649 33.6901 175.795 34.3492 175.795 35.0816V40.5746C175.795 41.307 175.649 42.0394 175.357 42.6253C175.065 43.2112 174.626 43.7239 174.115 44.0901C173.603 44.4563 173.019 44.7492 172.434 44.9689C171.777 45.1886 171.119 45.2619 170.462 45.2619C169.804 45.2619 169.146 45.1886 168.489 44.9689C167.831 44.7492 167.247 44.4563 166.735 44.0901C166.224 43.7239 165.859 43.2112 165.493 42.6253C165.201 42.0394 165.055 41.3802 165.055 40.5746V35.0816Z" fill="#212121"/>
<path d="M188.07 44.5296C187.413 44.676 186.755 44.8958 186.098 44.969C185.44 45.1155 184.784 45.1155 184.126 45.1155C183.468 45.1155 182.81 45.0422 182.225 44.8225C181.568 44.6028 181.057 44.3099 180.546 43.9437C180.034 43.5775 179.668 43.0648 179.376 42.5521C179.083 41.9662 178.938 41.307 178.938 40.5746V30.6873H180.473V40.6479C180.473 41.1606 180.545 41.6 180.764 41.9662C180.983 42.3324 181.275 42.6253 181.568 42.9183C181.933 43.2113 182.299 43.3577 182.738 43.5042C183.176 43.6507 183.614 43.7239 184.126 43.7239C184.857 43.7239 185.659 43.6507 186.317 43.431C187.048 43.2113 187.559 43.0648 187.997 42.8451V30.6873H189.533V44.0901L188.07 44.5296Z" fill="#212121"/>
<path d="M194.796 42.9182C195.38 43.2112 196.037 43.3577 196.694 43.5041C197.352 43.6506 198.01 43.7239 198.667 43.7239C199.106 43.7239 199.617 43.6506 200.055 43.5041C200.494 43.3577 200.932 43.2112 201.298 42.9182C201.663 42.6985 201.955 42.3323 202.174 41.9661C202.394 41.5999 202.467 41.1605 202.467 40.6478V34.8619C202.467 34.3492 202.394 33.9098 202.174 33.5436C201.955 33.1774 201.663 32.8844 201.298 32.5915C200.932 32.3717 200.568 32.152 200.13 32.0788C199.691 31.9323 199.252 31.9323 198.74 31.9323C198.083 31.9323 197.425 31.9323 196.768 32.0055C196.11 32.0788 195.453 32.152 194.796 32.3717V42.9182ZM193.26 31.4196C194.137 31.1267 195.014 30.907 195.964 30.6872C196.914 30.4675 197.79 30.4675 198.74 30.4675C199.398 30.4675 200.056 30.5408 200.714 30.7605C201.372 30.9802 201.956 31.2732 202.395 31.6394C202.906 32.0055 203.27 32.5182 203.563 33.0309C203.855 33.5436 204.001 34.276 204.001 35.0084V40.5013C204.001 41.2337 203.855 41.8929 203.563 42.4788C203.27 43.0647 202.833 43.5041 202.322 43.9436C201.81 44.3098 201.225 44.6027 200.567 44.8225C199.909 45.0422 199.252 45.1154 198.594 45.1154C197.937 45.1154 197.279 45.0422 196.621 44.8957C195.964 44.7492 195.379 44.5295 194.722 44.2365V50.0957H193.188V31.4196H193.26Z" fill="#212121"/>
</svg>
