<svg width="56" height="56" viewBox="0 0 56 56" fill="none" xmlns="http://www.w3.org/2000/svg">
<circle cx="28" cy="28" r="27.2497" fill="white" stroke="#E0E0E0" stroke-width="1.50052"/>
<rect x="16" y="16" width="25" height="25" rx="8" fill="#4339F2"/>
<path d="M28.5029 32.6659C26.2017 32.6659 24.3362 30.8004 24.3362 28.4993C24.3362 26.198 26.2017 24.3326 28.5029 24.3326C30.8041 24.3326 32.6696 26.198 32.6696 28.4993C32.6696 30.8004 30.8041 32.6659 28.5029 32.6659ZM28.5029 22.0803C24.9578 22.0803 22.084 24.9541 22.084 28.4993C22.084 32.0443 24.9578 34.9181 28.5029 34.9181C32.048 34.9181 34.9218 32.0443 34.9218 28.4993C34.9218 24.9541 32.048 22.0803 28.5029 22.0803Z" fill="white"/>
<path d="M36.6758 21.8225C36.6758 22.6509 36.0042 23.3225 35.1758 23.3225C34.3474 23.3225 33.6758 22.6509 33.6758 21.8225C33.6758 20.9941 34.3474 20.3225 35.1758 20.3225C36.0042 20.3225 36.6758 20.9941 36.6758 21.8225Z" fill="white"/>
</svg>
