<svg width="140" height="84" viewBox="0 0 140 84" fill="none" xmlns="http://www.w3.org/2000/svg">
<path fill-rule="evenodd" clip-rule="evenodd" d="M94.8555 7.95608H96.072C95.6764 7.82909 95.2511 7.82909 94.8555 7.95608Z" fill="#212121"/>
<path fill-rule="evenodd" clip-rule="evenodd" d="M66.374 41.5356C66.4786 40.8862 66.7885 40.2874 67.2582 39.827C67.7279 39.3666 68.3328 39.0688 68.9841 38.9772C66.7901 38.9181 65.3422 39.8045 65.3373 41.0308C65.3373 44.6087 65.293 69.5553 65.293 71.2938H66.0095C66.012 71.0894 66.1449 42.422 66.374 41.5356Z" fill="#212121"/>
<path fill-rule="evenodd" clip-rule="evenodd" d="M56.7861 41.7053C56.763 41.3144 56.852 40.9251 57.0427 40.5831C57.2333 40.2411 57.5176 39.9607 57.8621 39.7748C58.4519 39.5219 59.0582 39.3096 59.6769 39.1395C57.1751 39.068 56.1212 39.7354 56.1163 41.1291C56.0867 51.1855 56.0662 61.2412 56.0547 71.296H56.658C56.6186 63.2267 56.626 45.8692 56.7861 41.7053Z" fill="#212121"/>
<path fill-rule="evenodd" clip-rule="evenodd" d="M48.9086 42.6688C48.9035 42.5769 48.9228 42.4853 48.9646 42.4033C49.0063 42.3213 49.0689 42.2518 49.1462 42.2018C49.2234 42.1518 49.3125 42.1232 49.4044 42.1187C49.4963 42.1142 49.5877 42.1341 49.6695 42.1763C49.6604 42.0193 49.6027 41.869 49.5045 41.7462C49.4062 41.6234 49.2722 41.5342 49.121 41.491C48.9698 41.4477 48.8089 41.4525 48.6606 41.5047C48.5122 41.5569 48.3838 41.6539 48.293 41.7823V71.2918H48.9086C48.9086 70.4102 48.9529 44.587 48.9086 42.6688Z" fill="#212121"/>
<path fill-rule="evenodd" clip-rule="evenodd" d="M42.9492 42.3708V60.6493L43.1955 60.6148V42.3759L42.9492 42.3708Z" fill="#212121"/>
<path fill-rule="evenodd" clip-rule="evenodd" d="M110.743 8.80799C111.809 8.48049 112.326 8.31552 113.489 7.96094H96.0721C96.624 8.12598 97.136 8.40254 97.5766 8.77352C97.7459 9.93332 97.6534 11.1163 97.3058 12.2357C96.5228 13.3364 90.5785 12.9744 90.5785 12.9744L40.3061 12.77H32.6874C32.6874 12.77 32.5815 13.723 32.5273 13.9101C33.8277 14.5758 35.2218 15.0399 36.6617 15.2866C44.0834 15.3826 82.2408 15.6904 87.727 15.8874C88.2212 16.0037 88.6902 16.209 89.1109 16.4932C88.6961 16.7446 88.2427 16.926 87.7689 17.03C83.3883 17.2073 79.0027 17.4584 74.6172 17.451C69.259 17.451 43.0984 17.0669 35.3911 17.0669C37.9618 17.5374 40.5615 17.8319 43.1723 17.9484C49.7469 18.0543 56.324 18.1947 62.9011 18.2833C68.1632 18.3375 73.4229 18.2833 78.6851 18.3375C79.2585 18.4432 79.8123 18.6358 80.3275 18.9088C80.2684 19.0738 80.2044 19.2437 80.1428 19.4013H38.2672C39.4753 20.2384 40.9294 20.646 42.3966 20.5586C43.6278 20.4478 44.9157 20.1843 46.0607 20.1006C47.2771 20.0095 49.3923 20.4675 50.493 20.4502C52.0222 20.4232 52.9382 20.1745 54.4329 20.1006C55.2652 20.0587 57.0184 20.3468 57.863 20.3788C58.6263 20.4035 60.2244 20.1154 61.2907 20.1178C63.561 20.1178 64.28 20.4749 65.4103 20.4847C74.728 20.5586 87.2296 20.5291 87.8723 20.6817C89.1035 20.9821 88.6357 28.5786 88.6751 31.0903C88.3214 31.2355 87.938 31.2938 87.5571 31.2602C83.9029 31.3021 83.9152 31.5064 83.6715 28.458V31.5114C85.4592 31.5114 89.7905 31.6222 89.9161 31.6148C89.9161 30.2925 89.9432 28.6033 89.9432 27.281H90.2929V31.5902C91.1916 31.6468 91.9254 31.5606 92.6838 31.6049C92.6838 32.0186 92.6838 32.6219 92.6838 32.8361C73.7627 34.1634 54.6643 33.0307 35.9107 33.469C36.5882 33.7131 37.1995 34.1119 37.6959 34.6337C37.8557 35.1529 38.2114 35.5896 38.6876 35.8511C39.1638 36.1126 39.723 36.1785 40.247 36.0348C54.2457 36.0841 68.2445 35.9929 82.2433 36.1259C84.1122 36.1407 89.761 35.8797 89.8521 35.8797C89.8521 36.4583 89.7881 36.1259 88.5667 37.7043C87.6003 37.9008 86.7185 38.392 86.0427 39.1103C85.5412 39.4111 84.9754 39.5885 84.3919 39.6279C83.8084 39.6673 83.2239 39.5675 82.6865 39.3369C81.7801 38.8072 80.7592 38.5041 79.7106 38.4535C78.662 38.4029 77.6166 38.6063 76.6635 39.0463C76.251 39.2724 75.89 39.5818 75.6034 39.9548C75.3168 40.3279 75.111 40.7564 74.9989 41.2132C74.824 46.7758 74.696 62.8479 74.6517 71.2718H75.3214C75.4035 66.7853 75.4856 62.2996 75.5677 57.8148C75.7277 57.8148 75.8853 57.8148 76.0479 57.8148V71.262H76.3433V41.8042C76.4837 41.8042 76.6241 41.8682 76.7669 41.8633V51.1614C77.087 47.8322 76.9245 45.0447 77.0673 41.7205C77.0896 41.1217 77.2997 40.545 77.6678 40.0722C78.0359 39.5993 78.5434 39.2542 79.1185 39.0857C79.7862 38.9239 80.4822 38.9178 81.1526 39.0681C81.823 39.2184 82.4498 39.521 82.9844 39.9525C83.2232 40.206 83.4038 40.5085 83.5139 40.839C83.6321 41.4176 83.6345 60.1787 83.5902 71.2989H87.2075C87.2075 66.1451 87.2469 45.3353 87.2543 42.0923C87.2543 40.8611 88.2269 39.987 90.4184 40.0411C89.8076 40.123 89.2497 40.431 88.8549 40.9042C88.4601 41.3774 88.2571 41.9815 88.286 42.5971C88.0915 43.3851 88.286 66.1771 88.3229 71.2989H100.778C100.793 61.9221 100.748 39.4723 100.748 37.3916C101.135 37.0764 104.129 35.6162 104.289 34.2126C104.486 32.5062 100.751 30.9302 100.751 30.9302V20.0957C101.947 19.8521 103.114 19.4857 104.235 19.0023C104.814 18.6087 105.264 18.0522 105.527 17.4031C105.79 16.7539 105.854 16.0414 105.712 15.3555C109.342 14.4395 111.681 12.9374 111.696 9.79049C111.638 9.5574 111.519 9.34384 111.351 9.17134C111.184 8.99885 110.974 8.87352 110.743 8.80799ZM55.5557 35.2715C51.3869 35.2985 47.2156 35.2715 43.0467 35.2542C42.0002 35.2542 40.9512 35.2862 39.9096 35.2247C39.5841 35.1282 39.2805 34.9693 39.0158 34.7568L39.2448 34.2077C44.7359 34.2077 50.2271 34.2077 55.7158 34.2274C56.039 34.3092 56.3423 34.4558 56.6072 34.6583C56.3057 34.9371 55.9468 35.1464 55.5557 35.2715ZM75.7844 35.2715C71.1255 35.2985 66.4642 35.2715 61.8053 35.2542C60.6357 35.2542 59.4636 35.2862 58.3013 35.2247C57.9423 35.131 57.6035 34.9724 57.3016 34.7568C57.3878 34.5721 57.4715 34.3899 57.5478 34.2077C63.6841 34.2077 69.8204 34.2077 75.9592 34.2274C76.3114 34.3086 76.6455 34.4547 76.9442 34.6583C76.6037 34.9401 76.2089 35.1488 75.7844 35.2715ZM85.437 35.2715C83.4671 35.2985 81.4972 35.2715 79.5272 35.2542C79.0346 35.2719 78.5413 35.2621 78.0498 35.2247C77.8741 35.1045 77.7298 34.9441 77.6287 34.7568C77.7112 34.6166 77.8222 34.4953 77.9546 34.4007C78.0869 34.3061 78.2376 34.2404 78.397 34.2077C80.9899 34.2077 82.9253 34.2077 85.5207 34.2274C85.6955 34.332 85.8399 34.4805 85.9393 34.6583C85.8276 34.9019 85.6556 35.113 85.4395 35.2715H85.437ZM93.999 63H92.999V44.6606H93.999V63Z" fill="#212121"/>
<path fill-rule="evenodd" clip-rule="evenodd" d="M50.9887 0H24.375V8.27614H28.5365L28.076 7.92402H25.062L25.0374 0.576205H113.615V7.38475C113.615 7.38475 41.1243 7.92648 36.8668 7.92648V8.20473C41.1243 8.20473 114.349 8.27614 114.349 8.27614V0H50.9887Z" fill="#212121"/>
<path d="M130.222 77.4845H130.234H130.461C130.504 77.4881 130.546 77.4881 130.589 77.4845C130.791 77.4766 130.99 77.428 131.173 77.3417C131.264 77.2945 131.34 77.221 131.389 77.1307C131.439 77.0403 131.46 76.9371 131.451 76.8345V76.7975C131.462 76.6984 131.443 76.5983 131.396 76.5103C131.349 76.4224 131.276 76.3508 131.187 76.305C131.009 76.2179 130.815 76.1669 130.616 76.1548C130.578 76.1525 130.541 76.1525 130.503 76.1548H130.109V77.4894H130.222V77.4845Z" fill="#212121"/>
<path d="M95.9078 76.6079C95.8856 76.5094 95.8659 76.4109 95.8462 76.3149L95.8289 76.214L95.8093 76.1204C95.7846 76.2583 95.76 76.3937 95.7354 76.5316C95.7108 76.6603 95.6795 76.7877 95.6418 76.9133L94.9844 78.7404H96.644L95.9792 76.8862C95.9545 76.8 95.9398 76.7039 95.9078 76.6079Z" fill="#212121"/>
<path d="M0 71.4194V83.7536H140V71.4194H0ZM12.2258 77.0386V77.0928C12.2258 77.1322 12.2258 77.1618 12.2258 77.2012C12.2258 77.2406 12.2258 77.2701 12.2111 77.3095C12.1853 77.569 12.0871 77.816 11.9278 78.0223C11.7684 78.2287 11.5543 78.3861 11.3098 78.4767C10.8084 78.6449 10.2824 78.7281 9.75358 78.7229V80.8874H8.47313V75.2238H10.1476C10.219 75.2238 10.2928 75.2238 10.3692 75.2238C10.6516 75.2436 10.9309 75.2957 11.2015 75.379C11.4677 75.4649 11.7024 75.6277 11.8762 75.8468C11.955 75.9568 12.0203 76.0759 12.0707 76.2014C12.122 76.3329 12.1607 76.4689 12.1864 76.6077C12.1864 76.6693 12.2061 76.7358 12.2135 76.8023C12.2209 76.8687 12.2135 76.9328 12.2135 76.9894V77.0436L12.2258 77.0386ZM19.2511 76.2359H17.0177V77.3981H19.2511V78.4299H17.0177V79.8483H19.2511V80.8899H15.7421V75.2263H19.2486V76.2482L19.2511 76.2359ZM28.6698 80.8899H27.3918V78.5136H24.8112V80.8899H23.5455V75.2263H24.821V77.5065H27.4016V75.2263H28.6796V80.8899H28.6698ZM36.5125 76.2359H34.2767V77.3981H36.5101V78.4299H34.2767V79.8483H36.5101V80.8899H33.0011V75.2263H36.5101V76.2482L36.5125 76.2359ZM45.5545 76.6841C45.3142 76.4919 45.0481 76.3344 44.764 76.2162C44.4872 76.1074 44.1923 76.0522 43.8948 76.0537C43.8209 76.0537 43.7421 76.0537 43.6486 76.0537C43.555 76.0537 43.4861 76.0734 43.4023 76.0906C43.3753 76.0884 43.3481 76.0884 43.3211 76.0906L43.2423 76.1079C43.0262 76.1476 42.8202 76.2295 42.6359 76.3491C42.4517 76.4687 42.2929 76.6235 42.1687 76.8047C41.9297 77.1454 41.7914 77.5465 41.7698 77.962V78.0901C41.7758 78.536 41.9261 78.968 42.1982 79.3213C42.3421 79.5106 42.525 79.6667 42.7344 79.7793C42.9438 79.8919 43.1749 79.9582 43.4122 79.9738C43.4326 79.9716 43.4533 79.9716 43.4737 79.9738H43.5328H43.6658H43.7766C44.0946 79.9771 44.41 79.9177 44.705 79.799C45.0068 79.6785 45.2883 79.5124 45.5397 79.3065L45.5225 80.5623C45.3279 80.6652 45.1233 80.7477 44.9118 80.8086C44.7033 80.8685 44.4911 80.9146 44.2765 80.9465C44.1798 80.9657 44.0819 80.978 43.9835 80.9834C43.8924 80.9834 43.7988 80.9834 43.7027 80.9834C42.8909 80.9894 42.1016 80.7165 41.4669 80.2102C41.1405 79.9505 40.8809 79.6165 40.7095 79.2362C40.5382 78.8559 40.4602 78.4402 40.4819 78.0236C40.4681 77.2836 40.7479 76.5683 41.2601 76.034C41.7804 75.4797 42.4892 75.1398 43.2472 75.081C43.3359 75.0663 43.422 75.0589 43.5058 75.0515H43.752H43.9391H44.1263C44.3757 75.0772 44.6227 75.1224 44.865 75.1869C45.1117 75.2549 45.3542 75.3372 45.5914 75.4332L45.5545 76.6841ZM54.6531 76.6841C54.4123 76.4913 54.1453 76.3338 53.8602 76.2162C53.5835 76.1069 53.2884 76.0517 52.9909 76.0537C52.9146 76.0537 52.8383 76.0537 52.757 76.0537C52.6758 76.0537 52.5945 76.0734 52.5108 76.0906C52.4837 76.0884 52.4566 76.0884 52.4295 76.0906L52.3507 76.1079C52.1348 76.1478 51.9288 76.2299 51.7446 76.3495C51.5604 76.469 51.4015 76.6237 51.2771 76.8047C51.0374 77.145 50.8991 77.5463 50.8782 77.962V78.0901C50.8828 78.5358 51.0323 78.968 51.3042 79.3213C51.4486 79.5106 51.6319 79.6668 51.8417 79.7794C52.0515 79.8919 52.283 79.9582 52.5206 79.9738C52.5403 79.9716 52.5601 79.9716 52.5797 79.9738H52.6413H52.7718H52.8826C53.2005 79.9773 53.516 79.9179 53.8109 79.799C54.113 79.6791 54.3946 79.513 54.6457 79.3065L54.6284 80.5623C54.4338 80.6651 54.2292 80.7476 54.0178 80.8086C53.8084 80.8684 53.5954 80.9145 53.38 80.9465C53.2841 80.9656 53.187 80.978 53.0894 80.9834C52.9959 80.9834 52.9023 80.9834 52.8087 80.9834C51.9969 80.9894 51.2076 80.7165 50.5729 80.2102C50.2463 79.9506 49.9866 79.6167 49.8152 79.2363C49.6439 78.856 49.566 78.4402 49.5879 78.0236C49.5746 77.2837 49.8543 76.5686 50.366 76.034C50.8871 75.4793 51.5968 75.1394 52.3556 75.081C52.4418 75.0663 52.528 75.0589 52.6019 75.0515H52.8481H53.0353H53.2224C53.4719 75.0769 53.7189 75.1222 53.9611 75.1869C54.2079 75.2546 54.4505 75.3369 54.6875 75.4332L54.6531 76.6841ZM62.9735 80.8899L62.4811 79.6882H60.1738L59.7527 80.8899H58.3935L60.6441 75.2263H62.1092L64.4165 80.8899H62.9711H62.9735ZM73.6013 80.8899H72.3208V78.5136H69.7427V80.8899H68.4671V75.2263H69.7451V77.5065H72.3233V75.2263H73.6013V80.8899ZM82.69 76.6841C82.449 76.4917 82.182 76.3342 81.8971 76.2162C81.6212 76.1072 81.327 76.0521 81.0303 76.0537C80.9565 76.0537 80.8777 76.0537 80.7964 76.0537C80.7152 76.0537 80.6339 76.0734 80.5502 76.0906C80.524 76.0884 80.4976 76.0884 80.4714 76.0906L80.3901 76.1079C80.1741 76.1477 79.9681 76.2297 79.7839 76.3493C79.5996 76.4689 79.4408 76.6236 79.3165 76.8047C79.0768 77.145 78.9385 77.5463 78.9176 77.962V78.0901C78.9229 78.5357 79.0724 78.9677 79.3436 79.3213C79.488 79.5106 79.6713 79.6668 79.8811 79.7794C80.0909 79.8919 80.3224 79.9582 80.56 79.9738C80.5797 79.9717 80.5995 79.9717 80.6191 79.9738H80.6807H80.8112H80.9245C81.2424 79.9771 81.5579 79.9177 81.8528 79.799C82.1546 79.6785 82.4361 79.5124 82.6875 79.3065L82.6678 80.5623C82.4732 80.6649 82.2686 80.7474 82.0572 80.8086C81.8478 80.8682 81.6347 80.9143 81.4194 80.9465C81.3235 80.9656 81.2264 80.978 81.1288 80.9834C81.0353 80.9834 80.9417 80.9834 80.8481 80.9834C80.0362 80.9896 79.2469 80.7167 78.6123 80.2102C78.2859 79.9505 78.0262 79.6165 77.8549 79.2362C77.6836 78.8559 77.6056 78.4402 77.6273 78.0236C77.6146 77.2838 77.8942 76.5689 78.4054 76.034C78.9266 75.4793 79.6362 75.1394 80.395 75.081C80.4837 75.0663 80.5674 75.0589 80.6413 75.0515H80.8875H81.0747H81.2618C81.5113 75.0769 81.7583 75.1222 82.0005 75.1869C82.2515 75.254 82.4982 75.3363 82.7393 75.4332L82.69 76.6841ZM97.4349 80.8899L96.9424 79.6882H94.6376L94.2165 80.8899H92.8548L95.1079 75.2263H96.5706L98.8754 80.8899H97.4324H97.4349ZM106.216 80.8899L104.206 77.9128V80.8899H102.929V75.2263H104.204V77.7995L106.174 75.2263H107.666L105.526 77.8119L107.743 80.9021H106.213L106.216 80.8899ZM115.819 76.2359H114.342V80.8899H113.069V76.2359H111.613V75.214H115.827V76.2359H115.819ZM124.484 80.8899H123.209V77.7084C123.209 77.6148 123.209 77.5286 123.209 77.4622C123.209 77.3957 123.209 77.3144 123.224 77.243C123.223 77.1788 123.227 77.1146 123.236 77.051C123.236 76.9845 123.261 76.9057 123.278 76.8244C123.247 76.876 123.22 76.9294 123.197 76.9845C123.177 77.0386 123.152 77.0903 123.125 77.1445L123.014 77.3784C122.973 77.4576 122.921 77.5312 122.862 77.5976L120.601 80.8972H119.333V75.2337H120.609V78.3684C120.609 78.4589 120.604 78.5493 120.594 78.6392C120.594 78.7254 120.574 78.814 120.562 78.9002C120.562 78.9445 120.549 78.984 120.547 79.0209C120.545 79.0578 120.547 79.0997 120.535 79.144C120.521 79.1908 120.511 79.2385 120.505 79.2868C120.505 79.3312 120.505 79.3828 120.485 79.437C120.517 79.373 120.549 79.2967 120.584 79.2179C120.618 79.1391 120.653 79.0578 120.692 78.9716C120.736 78.8639 120.785 78.7587 120.84 78.6564C120.885 78.5701 120.937 78.4878 120.995 78.4102L123.211 75.2312H124.504V80.8948L124.484 80.8899ZM132.842 79.4124C132.823 79.6337 132.757 79.8484 132.649 80.0424C132.54 80.2364 132.392 80.4052 132.214 80.5377C131.612 80.836 130.94 80.9613 130.271 80.8997H128.835V75.2362H129.675C129.801 75.2362 129.921 75.214 130.042 75.214H130.379C130.937 75.1817 131.494 75.2919 131.997 75.5341C132.181 75.6436 132.335 75.796 132.447 75.9782C132.559 76.1605 132.625 76.3672 132.64 76.5807V76.7382C132.651 76.8931 132.624 77.0482 132.561 77.1902C132.498 77.3322 132.402 77.4568 132.28 77.5533C132.015 77.7479 131.708 77.8778 131.384 77.9325C131.761 77.9877 132.121 78.1283 132.436 78.3437C132.578 78.4524 132.691 78.5949 132.764 78.7583C132.838 78.9217 132.87 79.1008 132.857 79.2794V79.4247L132.842 79.4124Z" fill="#212121"/>
<path d="M61.4454 76.6079C61.4232 76.5094 61.4035 76.4109 61.3838 76.3149L61.3666 76.214L61.3469 76.1204L61.2705 76.5316C61.2472 76.6609 61.2151 76.7884 61.1745 76.9133L60.5195 78.7404H62.1792L61.5143 76.8862C61.4921 76.8 61.4651 76.7039 61.4454 76.6079Z" fill="#212121"/>
<path d="M131.269 78.5878C131.06 78.4931 130.835 78.4396 130.606 78.4302H130.498H130.109V79.9446H130.175H130.249H130.296C130.311 79.9473 130.327 79.9473 130.343 79.9446H130.498C130.534 79.9469 130.57 79.9469 130.606 79.9446C130.837 79.9349 131.065 79.8814 131.276 79.7869C131.382 79.7294 131.468 79.6418 131.524 79.5354C131.58 79.4289 131.603 79.3083 131.591 79.1886L131.572 79.1689C131.587 79.0526 131.566 78.9344 131.512 78.8303C131.458 78.7263 131.373 78.6416 131.269 78.5878Z" fill="#212121"/>
<path d="M10.5685 76.2359C10.3034 76.1486 10.0252 76.107 9.74609 76.1129V77.7873C10.0209 77.7942 10.2946 77.7508 10.5538 77.6592C10.6756 77.598 10.7755 77.5005 10.8395 77.38C10.9034 77.2596 10.9284 77.1222 10.9108 76.987V76.8713C10.9315 76.7425 10.9092 76.6104 10.8473 76.4956C10.7855 76.3808 10.6875 76.2895 10.5685 76.2359Z" fill="#212121"/>
</svg>
