<svg width="57" height="56" viewBox="0 0 57 56" fill="none" xmlns="http://www.w3.org/2000/svg">
<circle cx="28.5039" cy="28" r="27.2497" fill="white" stroke="#E0E0E0" stroke-width="1.50052"/>
<path d="M29 41C36.1797 41 42 35.1797 42 28C42 20.8203 36.1797 15 29 15C21.8203 15 16 20.8203 16 28C16 35.1797 21.8203 41 29 41Z" fill="#4339F2"/>
<path d="M34.2029 22.8H23.8029C23.0879 22.8 22.5094 23.385 22.5094 24.1L22.5029 31.9C22.5029 32.615 23.0879 33.2 23.8029 33.2H34.2029C34.9179 33.2 35.5029 32.615 35.5029 31.9V24.1C35.5029 23.385 34.9179 22.8 34.2029 22.8ZM34.2029 25.4L29.0029 28.65L23.8029 25.4V24.1L29.0029 27.35L34.2029 24.1V25.4Z" fill="white"/>
</svg>
