<svg width="56" height="57" viewBox="0 0 56 57" fill="none" xmlns="http://www.w3.org/2000/svg">
<circle cx="28" cy="28.0879" r="27.2497" fill="white" stroke="#E0E0E0" stroke-width="1.50052"/>
<path fill-rule="evenodd" clip-rule="evenodd" d="M17.058 34.3436C15.9303 32.4444 15.3408 30.292 15.3408 28.0636C15.3408 21.1505 21.0562 15.5288 28.053 15.5288C31.4617 15.5288 34.6398 16.8456 37.0489 19.2006C39.4325 21.5809 40.7652 24.721 40.7652 28.0889C40.7652 35.002 35.0498 40.6237 28.053 40.6237C25.9258 40.6237 23.8241 40.1172 21.9788 39.1043L15.2383 40.8516L17.058 34.3436ZM24.0212 21.9339C24.2555 21.9435 24.5148 21.9544 24.7611 22.4998C24.9294 22.8726 25.2127 23.5676 25.4384 24.1215C25.6048 24.5296 25.7399 24.8611 25.7747 24.9306C25.857 25.0944 25.9117 25.2856 25.8021 25.5043C25.7857 25.537 25.7705 25.5678 25.756 25.5973C25.6737 25.7648 25.6131 25.8878 25.4736 26.0504C25.419 26.114 25.3625 26.1825 25.3059 26.2509C25.1924 26.3884 25.0789 26.526 24.9804 26.6239C24.8154 26.7872 24.6441 26.9646 24.8359 27.2921C25.0278 27.62 25.6877 28.6919 26.6652 29.5599C27.7153 30.4924 28.6275 30.8868 29.0908 31.0871C29.1818 31.1264 29.2554 31.1583 29.3094 31.1852C29.6383 31.349 29.8301 31.3217 30.0219 31.1028C30.2138 30.8845 30.8435 30.147 31.0628 29.8195C31.282 29.4916 31.5013 29.5463 31.8027 29.6554C32.1041 29.7646 33.7207 30.5569 34.0495 30.7207C34.1137 30.7526 34.1736 30.7814 34.2292 30.8082C34.4587 30.9185 34.6136 30.993 34.6798 31.1028C34.762 31.2398 34.762 31.8952 34.488 32.6598C34.214 33.4245 32.8715 34.162 32.2686 34.2166C32.2106 34.2219 32.1529 34.2286 32.0936 34.2356C31.5364 34.3008 30.8332 34.3832 28.3228 33.3973C25.234 32.1841 23.1973 29.1776 22.7765 28.5565C22.742 28.5056 22.7184 28.4707 22.7059 28.4541L22.7023 28.4492C22.525 28.2133 21.3633 26.667 21.3633 25.0671C21.3633 23.559 22.1076 22.7684 22.4501 22.4047C22.4735 22.3798 22.495 22.357 22.5143 22.336C22.8155 22.0083 23.1718 21.9263 23.391 21.9263L23.4271 21.9263C23.6341 21.9262 23.84 21.9262 24.0212 21.9339Z" fill="#4339F2"/>
</svg>
