<svg width="203" height="49" viewBox="0 0 203 49" fill="none" xmlns="http://www.w3.org/2000/svg">
<path d="M0 48.7991H49.2586V0H0V48.7991ZM1.49549 1.49857H47.7631V47.3005H1.49549V1.49857Z" fill="#212121"/>
<path d="M0 6.57947V40.1832L1.15631 40.8091L11.0666 34.3061V0.702362L9.91031 0.076416L0 6.57947ZM1.49549 7.38734L9.57113 2.08684V33.4982L1.49549 38.7987V7.38734Z" fill="#212121"/>
<path d="M20.6371 7.36048V38.7719L28.7127 33.4714V2.05999L20.6371 7.36048ZM20.2979 40.7823L19.1416 40.1564V6.55262L29.0488 0.0495605L30.2082 0.675507V34.2792L20.2979 40.7823Z" fill="#212121"/>
<path d="M38.2752 6.5557V40.8871L39.4469 41.5162L49.3603 35.0131V0.684758L48.1886 0.0495605L38.2752 6.5557ZM39.7892 7.37282L47.8463 2.08157V34.196L39.7892 39.4872V7.37282Z" fill="#212121"/>
<path d="M0.333511 39.5469L0.296509 40.771L10.2932 48.1899L20.2991 41.5142L20.3268 40.2869L10.3363 32.9822L0.333511 39.5469ZM2.04793 40.2068L10.2932 34.7983L18.5785 40.8635L10.3363 46.3614L2.04793 40.2068Z" fill="#212121"/>
<path d="M19.4751 39.5469L19.4381 40.771L29.4317 48.1899L39.4437 41.5142L39.4684 40.2869L29.481 32.9822L19.4751 39.5469ZM21.1895 40.2068L29.4317 34.7983L37.7232 40.8635L29.481 46.3614L21.1895 40.2068Z" fill="#212121"/>
<path d="M94.6595 26.7328L104.348 0.446045H101.795L95.0351 19.5227L88.576 0.483597H82.8305L84.1824 4.12619L79.263 19.2599L72.2782 0.446045H66.4951L78.0613 29.4742L79.1128 26.7328L80.5398 22.6396L80.5022 22.5269L85.4967 7.65614L93.6456 29.4742L94.6595 26.7328Z" fill="#212121"/>
<path d="M127.476 27.5203H132.734V0.595124H127.476V12.7997H116.06V0.52002H110.803V27.5203H116.06V14.9402H127.476V27.5203Z" fill="#212121"/>
<path d="M147.878 0.56958H142.621V27.5323H147.878V0.56958Z" fill="#212121"/>
<path d="M178.209 2.6361V0.495605H153.312V2.6361H163.075V27.5334H168.333V2.6361H178.209Z" fill="#212121"/>
<path d="M202.999 25.2041H188.691V14.9147H197.065V12.6239H188.691V2.71007H202.473V0.56958H183.434V27.5323H202.999V25.2041Z" fill="#212121"/>
<path d="M66.4942 39.9224H70.1882C71.1149 39.9224 71.9413 40.1102 72.6551 40.4733C73.3688 40.8365 73.9323 41.3499 74.333 42.0136C74.7212 42.6772 74.9216 43.4411 74.9216 44.3051C74.9216 45.1691 74.7212 45.9204 74.333 46.5841C73.9323 47.2478 73.3688 47.7737 72.6551 48.1369C71.9413 48.5 71.1149 48.6878 70.1882 48.6878H66.4942V39.9224ZM70.1131 47.5984C70.8268 47.5984 71.453 47.4607 71.9914 47.1852C72.5299 46.9097 72.9431 46.5215 73.2311 46.0206C73.5191 45.5323 73.6694 44.9562 73.6694 44.3051C73.6694 43.6539 73.5191 43.0779 73.2311 42.577C72.9431 42.0887 72.5299 41.7005 71.9914 41.425C71.453 41.1495 70.8268 41.0118 70.1131 41.0118H67.7464V47.5984H70.1131Z" fill="#212121"/>
<path d="M86.9534 47.5967V48.6861H80.5922V39.9207H86.7781V41.0101H81.8444V43.7023H86.2396V44.7667H81.8444V47.5967H86.9534Z" fill="#212121"/>
<path d="M100.23 39.9207L96.3853 48.6861H95.1456L91.2888 39.9207H92.6412L95.7968 47.1209L98.9774 39.9207H100.23Z" fill="#212121"/>
<path d="M111.461 47.5964V48.6859H105.099V39.9204H111.285V41.0098H106.352V43.7021H110.747V44.7665H106.352V47.5964H111.461Z" fill="#212121"/>
<path d="M117.244 39.9204H118.496V47.5964H123.242V48.6859H117.244V39.9204Z" fill="#212121"/>
<path d="M132.239 48.7871C131.35 48.7871 130.561 48.5868 129.847 48.1986C129.133 47.8104 128.582 47.2845 128.182 46.5957C127.768 45.907 127.568 45.1432 127.568 44.3042C127.568 43.4652 127.768 42.7014 128.182 42.0127C128.582 41.3239 129.133 40.798 129.847 40.3973C130.561 40.0216 131.35 39.8213 132.239 39.8213C133.115 39.8213 133.904 40.0216 134.618 40.3973C135.332 40.798 135.883 41.3239 136.283 42.0001C136.684 42.6889 136.884 43.4527 136.884 44.3042C136.884 45.1557 136.684 45.9196 136.283 46.5957C135.883 47.2845 135.332 47.8104 134.618 48.1986C133.904 48.5868 133.115 48.7871 132.239 48.7871ZM132.239 47.6726C132.877 47.6726 133.466 47.5224 133.979 47.2344C134.48 46.9464 134.893 46.5457 135.194 46.0197C135.482 45.5063 135.632 44.9428 135.632 44.3042C135.632 43.6656 135.482 43.1021 135.194 42.5762C134.893 42.0627 134.48 41.662 133.979 41.374C133.466 41.086 132.877 40.9358 132.239 40.9358C131.6 40.9358 131.012 41.086 130.498 41.374C129.972 41.662 129.559 42.0627 129.271 42.5762C128.971 43.1021 128.82 43.6656 128.82 44.3042C128.82 44.9428 128.971 45.5063 129.271 46.0197C129.559 46.5457 129.972 46.9464 130.498 47.2344C131.012 47.5224 131.6 47.6726 132.239 47.6726Z" fill="#212121"/>
<path d="M145.975 39.9204C147.115 39.9204 148.004 40.1959 148.655 40.7343C149.306 41.2728 149.632 42.0241 149.632 42.9758C149.632 43.9275 149.306 44.6788 148.655 45.2173C148.004 45.7557 147.115 46.0312 145.975 46.0312H143.809V48.6859H142.557V39.9204H145.975ZM145.938 44.9418C146.726 44.9418 147.34 44.7665 147.753 44.4284C148.166 44.0903 148.379 43.6144 148.379 42.9758C148.379 42.3372 148.166 41.8488 147.753 41.5107C147.34 41.1726 146.726 41.0098 145.938 41.0098H143.809V44.9418H145.938Z" fill="#212121"/>
<path d="M163.36 48.6859L163.347 42.2996L160.179 47.6215H159.603L156.435 42.3372V48.6859H155.233V39.9204H156.26L159.916 46.0813L163.523 39.9204H164.549L164.562 48.6859H163.36Z" fill="#212121"/>
<path d="M177.303 47.5967V48.6861H170.942V39.9207H177.128V41.0101H172.194V43.7023H176.589V44.7667H172.194V47.5967H177.303Z" fill="#212121"/>
<path d="M190.623 39.9204V48.6859H189.596L184.337 42.1493V48.6859H183.085V39.9204H184.112L189.371 46.4569V39.9204H190.623Z" fill="#212121"/>
<path d="M198.753 41.0098H195.748V39.9204H202.998V41.0098H199.993V48.6859H198.753V41.0098Z" fill="#212121"/>
</svg>
